<?xml version="1.0" encoding="utf-8"?>
<!-- Generator: Adobe Illustrator 23.1.0, SVG Export Plug-In . SVG Version: 6.00 Build 0)  -->
<svg version="1.1" id="Layer_1" xmlns="http://www.w3.org/2000/svg" xmlns:xlink="http://www.w3.org/1999/xlink" x="0px" y="0px"
	 viewBox="0 0 511.1 511.1" style="enable-background:new 0 0 511.1 511.1;" xml:space="preserve">
<style type="text/css">
	.st0{fill:#DA3D53;}
	.st1{fill:#FFFFFF;}
</style>
<path class="st0" d="M248.4,458.2c-3.7,0.7-6.4,4-6.4,7.8c0,4.4,3.6,8,8,8c4.4,0,8-3.6,8-8C257.9,460.9,253.2,457.2,248.4,458.2z"/>
<circle class="st0" cx="255.6" cy="255.6" r="245.2"/>
<g>
	<path class="st1" d="M172.1,313.5c-8.3,1.8-8.1,13.5,0,15c5.5,1.1,10.1-3.7,9-9C180.3,315.4,176.3,312.7,172.1,313.5L172.1,313.5z"
		/>
	<path class="st1" d="M337.5,328.7c9.1,0,10.6-13.2,1.5-15.2c-4.8-0.9-9.2,2.8-9.2,7.5C329.9,325.1,333.2,328.7,337.5,328.7z"/>
	<path class="st1" d="M131,192.6c5.5-9.5,26.7-16.9,56.5-19.8c26.2-2.5,45.3-23,47.5-50.9c0.6-8.2,0.4-17.1-0.7-26.4
		c-0.5-4.2-4.3-7.2-8.5-6.7c-4.2,0.5-7.2,4.3-6.7,8.5c1,8.4,1.2,16.3,0.6,23.5c-1.6,20.2-15.1,35-33.7,36.8
		c-45.9,4.5-62.5,17.3-68.3,27.3c-40.3,69.1-28.6,243-28.1,250.4c0.3,4,3.7,7.1,7.6,7.1c4.5,0,8-3.8,7.7-8.2
		C104.8,432.4,93,257.7,131,192.6L131,192.6z"/>
	<path class="st1" d="M393.4,184.9c-5.8-10-22.4-22.9-68.3-27.3c-18.6-1.8-32.1-16.6-33.7-36.8c-0.6-7.2-0.4-15.1,0.6-23.5
		c0.5-4.2-2.5-8-6.7-8.5c-4.2-0.5-8,2.5-8.5,6.7c-1.1,9.4-1.3,18.3-0.7,26.4c2.2,27.9,21.3,48.3,47.5,50.9
		c29.9,2.9,51,10.3,56.5,19.8c37.9,65.1,26.2,239.8,26,241.6c-0.3,4.4,3.2,8.2,7.7,8.2c4,0,7.4-3.1,7.6-7.1
		C422,427.9,433.7,254,393.4,184.9L393.4,184.9z"/>
	<path class="st1" d="M387.4,298.1c0-34.9-30.4-61.3-35.1-84.3c-0.8-4.2-4.9-6.8-9.1-6c-4.2,0.9-6.8,4.9-6,9.1
		c2.6,12.6,9.3,23.3,15.9,33.6c8.4,13.2,19,31.4,19,47.6c0,23.4-14.6,45.2-35.2,54.1c-0.3,0.1-0.7,0.3-1,0.4
		c-47.7,19.5-93.4-42.2-62.9-85.7c2.4-3.5,1.6-8.3-1.9-10.7c-3.5-2.4-8.3-1.6-10.7,1.9c-1.9,2.6-3.5,5.4-5,8.2
		c-1.5-2.8-3.1-5.6-5-8.2c-2.4-3.5-7.2-4.3-10.7-1.9c-3.5,2.4-4.3,7.2-1.9,10.7c26,37-3.3,89.3-44.6,89.3
		c-28.8,0-54.4-27.1-54.4-58.2c0-16.1,10.6-34.3,19-47.6c6.5-10.3,13.3-21,15.9-33.6c0.8-4.2-1.8-8.2-6-9.1c-4.2-0.8-8.2,1.8-9.1,6
		c-6,29.1-51.9,62.2-28.6,114.5c-7.9,29.5-6.6,103.4-6.6,106.6c0.1,4.2,3.5,7.5,7.7,7.5c4.3,0,7.8-3.5,7.7-7.8
		c-0.4-23.2,0.2-63.3,3.3-87.3c6.1,7.1,14,13.6,22.4,17.6c15,93.4-22.5,93.7-22.5,168.2c0,2.9,1.6,5.6,4.2,6.9l55.3,27.8
		c30.8,15.5,66.7,16.4,98.5,1.7l64-29.4c2.7-1.3,4.5-4,4.5-7c0-74-37.4-75.2-22.5-168.2c7.5-3.7,14.2-8.8,20-14.8
		c8.7,31.9,9.6,84.3,9.6,84.9c0.1,4,3.3,7.6,7.8,7.6c4.2-0.1,7.6-3.5,7.6-7.8c0-2.8-1.1-67.3-13.7-99.7
		C383.9,323.6,387.4,310.8,387.4,298.1L387.4,298.1z M353.4,528.1l-59.5,27.4c-27.3,12.5-58.3,12-85.2-1.5l-51-25.7
		c1.5-62.9,35.4-70.4,23.4-157.9c30.9,6.1,60.5-11.2,74.5-39.7c13.8,28.4,43.3,45.9,74.5,39.7C318.1,457.9,351.8,465.3,353.4,528.1z
		"/>
</g>
</svg>
