<?xml version="1.0" encoding="utf-8"?>
<!-- Generator: Adobe Illustrator 22.0.0, SVG Export Plug-In . SVG Version: 6.00 Build 0)  -->
<svg version="1.1" id="Layer_1" xmlns="http://www.w3.org/2000/svg" xmlns:xlink="http://www.w3.org/1999/xlink" x="0px" y="0px"
	 viewBox="0 0 283.8 263.8" style="enable-background:new 0 0 283.8 263.8;" xml:space="preserve">
<style type="text/css">
	.st0{fill:#DA3E54;}
	.st1{display:none;}
	.st2{display:inline;fill:#DA3E54;}
	.st3{fill:none;stroke:#DA3E54;stroke-width:10;stroke-miterlimit:10;}
</style>
<path class="st0" d="M232.4,147.6c9.7-26.4-3.8-55.8-30.3-65.5c-22.5-8.3-47.1,0.3-59.9,19.4c-12.8-19.1-37.4-27.7-59.9-19.4
	c-26.4,9.7-40,39-30.3,65.5c2.8,7.6,7.2,14.1,12.6,19.3c-1.6,2.1-2.6,4.6-2.6,7.5c0,6.6,5.4,12,12,12c5,0,9.3-3.1,11.1-7.5
	c10.2,3.1,21.5,3,32.4-0.9c10.5-3.9,18.9-10.8,24.7-19.4c5.8,8.6,14.2,15.6,24.7,19.4c10.8,4,22.1,4,32.4,0.9
	c1.8,4.4,6.1,7.5,11.1,7.5c6.6,0,12-5.4,12-12c0-2.8-1-5.4-2.6-7.5C225.2,161.7,229.6,155.2,232.4,147.6z"/>
<g class="st1">
	<path class="st2" d="M17.8,197.1v15.4c1.3-1.5,2.6-2.7,3.9-3.6c1.3-0.9,2.6-1.6,4.2-2c1.5-0.4,3.2-0.7,4.9-0.7c2.6,0,5,0.6,7,1.7
		c2,1.1,3.6,2.7,4.8,4.9c0.7,1.2,1.2,2.6,1.5,4.2c0.3,1.5,0.4,3.3,0.4,5.3v19.9c0,2.1-0.5,3.6-1.4,4.7s-2.2,1.6-3.8,1.6
		c-3.4,0-5.1-2.1-5.1-6.3v-17.5c0-3.3-0.5-5.9-1.5-7.7c-1-1.8-2.9-2.7-5.6-2.7c-1.8,0-3.5,0.5-5,1.6c-1.5,1.1-2.6,2.5-3.3,4.3
		c-0.6,1.5-0.8,4.3-0.8,8.2v13.7c0,2.1-0.5,3.6-1.4,4.7c-0.9,1.1-2.2,1.6-3.9,1.6c-3.4,0-5.1-2.1-5.1-6.3v-45c0-2.1,0.4-3.7,1.3-4.7
		c0.9-1.1,2.2-1.6,3.8-1.6c1.6,0,2.9,0.5,3.9,1.6C17.3,193.4,17.8,195,17.8,197.1z"/>
	<path class="st2" d="M93.4,227.3c0,3.1-0.5,5.9-1.4,8.5c-1,2.6-2.4,4.8-4.2,6.7s-4,3.3-6.5,4.3c-2.5,1-5.4,1.5-8.5,1.5
		c-3.1,0-6-0.5-8.5-1.5c-2.5-1-4.7-2.5-6.5-4.3c-1.8-1.9-3.2-4.1-4.2-6.7c-0.9-2.6-1.4-5.4-1.4-8.5c0-3.1,0.5-6,1.4-8.6
		c1-2.6,2.3-4.8,4.1-6.7c1.8-1.8,4-3.3,6.5-4.3c2.6-1,5.4-1.5,8.5-1.5c3.1,0,6,0.5,8.5,1.5c2.6,1,4.7,2.5,6.6,4.3s3.2,4.1,4.2,6.7
		S93.4,224.2,93.4,227.3z M83,227.3c0-4.2-0.9-7.5-2.8-9.9c-1.9-2.4-4.4-3.5-7.5-3.5c-2,0-3.8,0.5-5.4,1.6c-1.5,1.1-2.7,2.6-3.6,4.7
		c-0.8,2.1-1.3,4.4-1.3,7.2c0,2.7,0.4,5.1,1.2,7.1c0.8,2,2,3.6,3.5,4.7c1.5,1.1,3.3,1.6,5.4,1.6c3.1,0,5.6-1.2,7.5-3.6
		C82.1,234.7,83,231.5,83,227.3z"/>
	<path class="st2" d="M140.4,227.3c0,3.1-0.5,5.9-1.4,8.5c-1,2.6-2.4,4.8-4.2,6.7s-4,3.3-6.5,4.3c-2.5,1-5.4,1.5-8.5,1.5
		c-3.1,0-6-0.5-8.5-1.5c-2.5-1-4.7-2.5-6.5-4.3c-1.8-1.9-3.2-4.1-4.2-6.7c-0.9-2.6-1.4-5.4-1.4-8.5c0-3.1,0.5-6,1.4-8.6
		c1-2.6,2.3-4.8,4.1-6.7c1.8-1.8,4-3.3,6.5-4.3c2.6-1,5.4-1.5,8.5-1.5c3.1,0,6,0.5,8.5,1.5c2.6,1,4.7,2.5,6.6,4.3s3.2,4.1,4.2,6.7
		S140.4,224.2,140.4,227.3z M130,227.3c0-4.2-0.9-7.5-2.8-9.9c-1.9-2.4-4.4-3.5-7.5-3.5c-2,0-3.8,0.5-5.4,1.6
		c-1.5,1.1-2.7,2.6-3.6,4.7c-0.8,2.1-1.3,4.4-1.3,7.2c0,2.7,0.4,5.1,1.2,7.1c0.8,2,2,3.6,3.5,4.7c1.5,1.1,3.3,1.6,5.4,1.6
		c3.1,0,5.6-1.2,7.5-3.6C129.1,234.7,130,231.5,130,227.3z"/>
	<path class="st2" d="M174.4,243.6l-9.2-15l-5.6,5.3v8.2c0,2-0.5,3.5-1.6,4.6c-1.1,1.1-2.3,1.6-3.6,1.6c-1.6,0-2.8-0.5-3.8-1.6
		s-1.4-2.6-1.4-4.7v-44.2c0-2.3,0.4-4.1,1.3-5.3c0.9-1.2,2.2-1.8,3.8-1.8c1.6,0,2.9,0.5,3.8,1.6c0.9,1.1,1.4,2.7,1.4,4.8v25.1
		l11.7-12.2c1.4-1.5,2.5-2.6,3.3-3.1c0.8-0.6,1.7-0.8,2.8-0.8c1.3,0,2.4,0.4,3.2,1.2c0.9,0.8,1.3,1.9,1.3,3.1c0,1.5-1.4,3.5-4.2,6.1
		l-5.5,5.1l10.6,16.7c0.8,1.2,1.3,2.2,1.7,2.8s0.5,1.3,0.5,1.8c0,1.6-0.5,2.9-1.3,3.9c-0.9,0.9-2.1,1.4-3.6,1.4
		c-1.3,0-2.2-0.3-2.9-1C176.5,246.7,175.6,245.4,174.4,243.6z"/>
	<path class="st2" d="M218.2,242.5v-1.3c-1.2,1.6-2.5,2.9-3.9,4s-2.9,1.9-4.5,2.4c-1.6,0.5-3.5,0.8-5.5,0.8c-2.5,0-4.8-0.5-6.7-1.6
		c-2-1-3.5-2.5-4.6-4.3c-1.3-2.2-1.9-5.4-1.9-9.5v-20.6c0-2.1,0.5-3.6,1.4-4.7c0.9-1,2.2-1.5,3.7-1.5c1.6,0,2.8,0.5,3.8,1.6
		c1,1,1.4,2.6,1.4,4.6V229c0,2.4,0.2,4.4,0.6,6.1c0.4,1.6,1.1,2.9,2.2,3.8c1.1,0.9,2.5,1.4,4.3,1.4c1.7,0,3.4-0.5,4.9-1.6
		c1.5-1,2.7-2.4,3.4-4.1c0.6-1.5,0.9-4.7,0.9-9.6v-12.6c0-2.1,0.5-3.6,1.4-4.6c1-1,2.2-1.6,3.8-1.6s2.8,0.5,3.7,1.5s1.4,2.6,1.4,4.7
		v30c0,2-0.5,3.5-1.3,4.4c-0.9,1-2.1,1.5-3.5,1.5s-2.6-0.5-3.5-1.5S218.2,244.4,218.2,242.5z"/>
	<path class="st2" d="M247.8,212v1.3c1.9-2.4,4-4.2,6.1-5.3c2.1-1.1,4.5-1.7,7.1-1.7c3.2,0,6.1,0.8,8.8,2.5c2.7,1.6,4.8,4.1,6.4,7.2
		c1.6,3.2,2.3,6.9,2.3,11.2c0,3.2-0.5,6.1-1.3,8.8s-2.1,4.9-3.7,6.7s-3.4,3.2-5.6,4.2c-2.1,1-4.4,1.5-6.9,1.5c-3,0-5.5-0.6-7.5-1.8
		c-2-1.2-3.9-2.9-5.8-5.2v15.6c0,4.6-1.7,6.8-5,6.8c-2,0-3.2-0.6-3.9-1.8c-0.6-1.2-1-2.9-1-5.1v-44.7c0-2,0.4-3.5,1.3-4.4
		c0.9-1,2-1.5,3.5-1.5c1.5,0,2.7,0.5,3.6,1.5C247.3,208.7,247.8,210.1,247.8,212z M268.1,227.1c0-2.7-0.4-5.1-1.3-7
		c-0.8-2-2-3.5-3.5-4.5c-1.5-1.1-3.1-1.6-4.9-1.6c-2.9,0-5.3,1.1-7.2,3.4s-2.9,5.6-2.9,10c0,4.1,1,7.3,2.9,9.6
		c2,2.3,4.4,3.4,7.3,3.4c1.7,0,3.3-0.5,4.8-1.5c1.5-1,2.6-2.5,3.5-4.5C267.7,232.4,268.1,229.9,268.1,227.1z"/>
</g>
<circle class="st3" cx="142.2" cy="131.7" r="126"/>
</svg>
