<?xml version="1.0" encoding="iso-8859-1"?>
<!-- Generator: Adobe Illustrator 19.0.0, SVG Export Plug-In . SVG Version: 6.00 Build 0)  -->
<svg version="1.1" id="Layer_1" xmlns="http://www.w3.org/2000/svg" xmlns:xlink="http://www.w3.org/1999/xlink" x="0px" y="0px"
	 viewBox="0 0 512 512" style="enable-background:new 0 0 512 512;" xml:space="preserve">
<path style="fill:#F26464;" d="M405.962,62.116L405.962,62.116c-82.822-82.822-217.102-82.822-299.922,0l0,0
	c-82.822,82.822-82.822,217.101,0,299.922L256,512l149.962-149.962C488.782,279.218,488.782,144.938,405.962,62.116z"/>
<circle style="fill:#B5C0C9;" cx="256" cy="211.404" r="143.673"/>
<path style="fill:#9AA8B2;" d="M167.816,211.401c0-69.856,49.858-128.057,115.928-140.986c-8.978-1.756-18.252-2.687-27.744-2.687
	c-79.348,0-143.673,64.325-143.673,143.673S176.651,355.074,256,355.074c9.493,0,18.766-0.93,27.744-2.687
	C217.674,339.459,167.816,281.256,167.816,211.401z"/>
<g>
	<path style="fill:#3C4A5E;" d="M255.992,211.395V355.07c-79.341,0-143.664-64.323-143.664-143.676L255.992,211.395L255.992,211.395
		z"/>
	<path style="fill:#3C4A5E;" d="M399.673,211.395H255.997V67.731C335.351,67.731,399.673,132.054,399.673,211.395z"/>
</g>
<path style="fill:#2A3644;" d="M255.992,343.945v11.126c-79.341,0-143.664-64.323-143.664-143.676h55.485
	C167.813,271.072,204.196,322.233,255.992,343.945z"/>
<g>
</g>
<g>
</g>
<g>
</g>
<g>
</g>
<g>
</g>
<g>
</g>
<g>
</g>
<g>
</g>
<g>
</g>
<g>
</g>
<g>
</g>
<g>
</g>
<g>
</g>
<g>
</g>
<g>
</g>
</svg>
